<svg width="378" height="282" viewBox="0 0 378 282" fill="none" xmlns="http://www.w3.org/2000/svg">
    <g clip-path="url(#clip0)">
        <path d="M132.092 86.4673H180.87" stroke="#3F3D56" stroke-width="2" stroke-miterlimit="10"/>
        <path d="M73.9824 140.297C76.6207 133.395 77.0028 127.128 74.8358 126.3C72.6689 125.472 68.7735 130.396 66.1352 137.298C63.4969 144.2 63.1148 150.467 65.2817 151.295C67.4486 152.123 71.3441 147.199 73.9824 140.297Z" fill="#2F2E41"/>
        <path d="M376.449 172.505C381.755 211.995 374.53 251.528 337.776 266.922C301.022 282.317 258.747 265.003 243.352 228.252C227.957 191.501 264.281 169.511 282.025 133.835C318.059 61.3864 359.97 49.8693 376.449 172.505Z" fill="#F2F2F2"/>
        <path d="M310.282 276.919C342.085 276.919 367.867 273.412 367.867 269.086C367.867 264.76 342.085 261.252 310.282 261.252C278.479 261.252 252.697 264.76 252.697 269.086C252.697 273.412 278.479 276.919 310.282 276.919Z" fill="#3F3D56"/>
        <path d="M272.611 249.149L274.777 256.984L288.816 253.104L286.65 245.269L272.611 249.149Z" fill="#2F2E41"/>
        <path d="M273.578 258.37C274.931 257.996 275.219 254.77 274.222 251.164C273.225 247.558 271.321 244.937 269.968 245.311C268.616 245.685 268.328 248.911 269.325 252.517C270.322 256.124 272.226 258.744 273.578 258.37Z" fill="#2F2E41"/>
        <path d="M316.923 222.201C317.916 214.879 316.857 208.691 314.558 208.379C312.259 208.068 309.591 213.751 308.599 221.073C307.606 228.395 308.665 234.583 310.964 234.895C313.263 235.207 315.931 229.523 316.923 222.201Z" fill="#2F2E41"/>
        <path d="M310.141 273.443C324.921 273.443 336.901 261.463 336.901 246.684C336.901 231.906 324.921 219.926 310.141 219.926C295.362 219.926 283.381 231.906 283.381 246.684C283.381 261.463 295.362 273.443 310.141 273.443Z" fill="#2F2E41"/>
        <path d="M272.611 244.407L274.777 252.242L288.816 248.362L286.65 240.527L272.611 244.407Z" fill="#2F2E41"/>
        <path d="M273.578 253.628C274.931 253.254 275.219 250.028 274.222 246.422C273.225 242.816 271.321 240.195 269.968 240.569C268.616 240.943 268.328 244.169 269.325 247.775C270.322 251.382 272.226 254.002 273.578 253.628Z" fill="#2F2E41"/>
        <path d="M317.168 240.501C322.219 240.501 326.314 236.406 326.314 231.355C326.314 226.305 322.219 222.21 317.168 222.21C312.117 222.21 308.022 226.305 308.022 231.355C308.022 236.406 312.117 240.501 317.168 240.501Z" fill="white"/>
        <path d="M320.093 230.364C321.777 230.364 323.142 228.999 323.142 227.316C323.142 225.632 321.777 224.267 320.093 224.267C318.409 224.267 317.044 225.632 317.044 227.316C317.044 228.999 318.409 230.364 320.093 230.364Z" fill="#3F3D56"/>
        <path d="M341.044 265.073C350.947 264.577 358.531 255.315 357.984 244.385C357.437 233.456 348.966 224.997 339.063 225.493C329.16 225.988 327.606 233.761 328.153 244.691C328.7 255.621 331.141 265.568 341.044 265.073Z" fill="#5A67D8"/>
        <path d="M299.205 235.363C297.593 235.493 295.996 234.977 294.764 233.93C293.533 232.883 292.767 231.389 292.637 229.777C292.507 228.166 293.022 226.569 294.069 225.337C295.116 224.105 296.609 223.34 298.221 223.209C301.577 222.937 302.493 225.602 302.764 228.958C303.036 232.314 302.561 235.091 299.205 235.363Z" fill="white"/>
        <path d="M16.7552 122.284H166.643L189.882 133.604L226.908 151.641L251.116 106.318H319.622" stroke="#3F3D56" stroke-width="2" stroke-miterlimit="10"/>
        <path d="M75.4742 131.661C78.0345 131.661 80.1099 129.586 80.1099 127.026C80.1099 124.466 78.0345 122.391 75.4742 122.391C72.914 122.391 70.8385 124.466 70.8385 127.026C70.8385 129.586 72.914 131.661 75.4742 131.661Z" fill="#5A67D8"/>
        <path d="M118.741 126.919C121.301 126.919 123.377 124.844 123.377 122.284C123.377 119.724 121.301 117.649 118.741 117.649C116.181 117.649 114.105 119.724 114.105 122.284C114.105 124.844 116.181 126.919 118.741 126.919Z" fill="#5A67D8"/>
        <path d="M189.822 138.25C192.382 138.25 194.458 136.175 194.458 133.615C194.458 131.055 192.382 128.979 189.822 128.979C187.262 128.979 185.186 131.055 185.186 133.615C185.186 136.175 187.262 138.25 189.822 138.25Z" fill="#5A67D8"/>
        <path d="M289.748 110.953C292.308 110.953 294.383 108.878 294.383 106.318C294.383 103.757 292.308 101.682 289.748 101.682C287.187 101.682 285.112 103.757 285.112 106.318C285.112 108.878 287.187 110.953 289.748 110.953Z" fill="#5A67D8"/>
        <path d="M241.33 128.98C243.89 128.98 245.966 126.904 245.966 124.344C245.966 121.784 243.89 119.709 241.33 119.709C238.77 119.709 236.694 121.784 236.694 124.344C236.694 126.904 238.77 128.98 241.33 128.98Z" fill="#5A67D8"/>
        <path d="M144.835 201.939C147.596 201.939 149.833 199.702 149.833 196.941C149.833 194.181 147.596 191.944 144.835 191.944C142.075 191.944 139.837 194.181 139.837 196.941C139.837 199.702 142.075 201.939 144.835 201.939Z" stroke="#3F3D56" stroke-width="2" stroke-miterlimit="10"/>
        <path d="M57.5851 282C89.3885 282 115.17 278.493 115.17 274.166C115.17 269.84 89.3885 266.333 57.5851 266.333C25.7817 266.333 0 269.84 0 274.166C0 278.493 25.7817 282 57.5851 282Z" fill="#3F3D56"/>
        <path d="M54.4703 262.65C69.2495 262.65 81.2304 250.67 81.2304 235.892C81.2304 221.114 69.2495 209.134 54.4703 209.134C39.691 209.134 27.7101 221.114 27.7101 235.892C27.7101 250.67 39.691 262.65 54.4703 262.65Z" fill="#2F2E41"/>
        <path d="M50.4054 256.892H42.2758V271.457H50.4054V256.892Z" fill="#2F2E41"/>
        <path d="M66.6647 256.892H58.5351V271.457H66.6647V256.892Z" fill="#2F2E41"/>
        <path d="M49.0505 274.167C52.7921 274.167 55.8252 273.029 55.8252 271.626C55.8252 270.223 52.7921 269.086 49.0505 269.086C45.3089 269.086 42.2758 270.223 42.2758 271.626C42.2758 273.029 45.3089 274.167 49.0505 274.167Z" fill="#2F2E41"/>
        <path d="M65.3098 273.828C69.0514 273.828 72.0845 272.69 72.0845 271.287C72.0845 269.884 69.0514 268.747 65.3098 268.747C61.5682 268.747 58.5351 269.884 58.5351 271.287C58.5351 272.69 61.5682 273.828 65.3098 273.828Z" fill="#2F2E41"/>
        <path d="M55.1477 238.263C60.1989 238.263 64.2936 234.168 64.2936 229.118C64.2936 224.067 60.1989 219.972 55.1477 219.972C50.0966 219.972 46.0019 224.067 46.0019 229.118C46.0019 234.168 50.0966 238.263 55.1477 238.263Z" fill="white"/>
        <path d="M55.1477 232.166C56.8314 232.166 58.1964 230.801 58.1964 229.118C58.1964 227.434 56.8314 226.069 55.1477 226.069C53.464 226.069 52.0991 227.434 52.0991 229.118C52.0991 230.801 53.464 232.166 55.1477 232.166Z" fill="#3F3D56"/>
        <path d="M28.512 211.007C26.3513 201.331 33.2584 191.554 43.9394 189.169C54.6205 186.784 65.0309 192.695 67.1916 202.371C69.3524 212.047 62.2736 215.616 51.5926 218.001C40.9115 220.386 30.6728 220.684 28.512 211.007Z" fill="#5A67D8"/>
        <path d="M45.3244 185.762C60.1036 185.762 72.0845 173.782 72.0845 159.004C72.0845 144.226 60.1036 132.246 45.3244 132.246C30.5452 132.246 18.5643 144.226 18.5643 159.004C18.5643 173.782 30.5452 185.762 45.3244 185.762Z" fill="#2F2E41"/>
        <path d="M41.2596 180.004H33.1299V194.569H41.2596V180.004Z" fill="#2F2E41"/>
        <path d="M57.5189 180.004H49.3892V194.569H57.5189V180.004Z" fill="#2F2E41"/>
        <path d="M39.9046 197.279C43.6462 197.279 46.6793 196.141 46.6793 194.738C46.6793 193.335 43.6462 192.198 39.9046 192.198C36.163 192.198 33.1299 193.335 33.1299 194.738C33.1299 196.141 36.163 197.279 39.9046 197.279Z" fill="#2F2E41"/>
        <path d="M56.1639 196.94C59.9055 196.94 62.9387 195.803 62.9387 194.4C62.9387 192.997 59.9055 191.859 56.1639 191.859C52.4224 191.859 49.3892 192.997 49.3892 194.4C49.3892 195.803 52.4224 196.94 56.1639 196.94Z" fill="#2F2E41"/>
        <path d="M46.0019 161.375C51.053 161.375 55.1477 157.281 55.1477 152.23C55.1477 147.179 51.053 143.085 46.0019 143.085C40.9507 143.085 36.856 147.179 36.856 152.23C36.856 157.281 40.9507 161.375 46.0019 161.375Z" fill="white"/>
        <path d="M46.0019 155.278C47.6856 155.278 49.0505 153.914 49.0505 152.23C49.0505 150.546 47.6856 149.182 46.0019 149.182C44.3182 149.182 42.9532 150.546 42.9532 152.23C42.9532 153.914 44.3182 155.278 46.0019 155.278Z" fill="#3F3D56"/>
        <path d="M19.3662 134.12C17.2054 124.443 24.1125 114.666 34.7936 112.281C45.4746 109.896 55.885 115.807 58.0457 125.483C60.2065 135.16 53.1278 138.728 42.4467 141.113C31.7656 143.498 21.5269 143.796 19.3662 134.12Z" fill="#5A67D8"/>
        <path d="M27.2728 152.322C28.267 150.226 23.6603 145.96 16.9836 142.793C10.3069 139.627 4.08843 138.759 3.09431 140.855C2.1002 142.951 6.70686 147.217 13.3836 150.383C20.0603 153.55 26.2787 154.417 27.2728 152.322Z" fill="#2F2E41"/>
        <path d="M32.1799 168.657C32.1799 171.276 38.9237 176.448 46.4068 176.448C53.8899 176.448 60.9062 169.075 60.9062 166.456C60.9062 163.837 53.8899 166.964 46.4068 166.964C38.9237 166.964 32.1799 166.039 32.1799 168.657Z" fill="white"/>
        <path d="M325.73 191.274H283.005V213.007H325.73V191.274Z" fill="#5A67D8"/>
        <path d="M322.386 194.804H279.661V216.536H322.386V194.804Z" stroke="#3F3D56" stroke-width="2" stroke-miterlimit="10"/>
        <path d="M88.9532 67.4038H76.7587V79.5975H88.9532V67.4038Z" fill="#FF6584"/>
        <path d="M85.9046 63.3394H73.7101V75.533H85.9046V63.3394Z" stroke="#3F3D56" stroke-width="2" stroke-miterlimit="10"/>
        <path d="M306.912 90.9342C321.692 90.9342 333.672 78.9541 333.672 64.1759C333.672 49.3977 321.692 37.4176 306.912 37.4176C292.133 37.4176 280.152 49.3977 280.152 64.1759C280.152 78.9541 292.133 90.9342 306.912 90.9342Z" fill="#2F2E41"/>
        <path d="M317.247 98.4463L325.247 96.9983L322.652 82.6666L314.652 84.1146L317.247 98.4463Z" fill="#2F2E41"/>
        <path d="M301.249 101.344L309.248 99.896L306.654 85.5643L298.654 87.0124L301.249 101.344Z" fill="#2F2E41"/>
        <path d="M305.495 104.36C308.35 101.942 309.93 99.1141 309.023 98.0435C308.116 96.9729 305.067 98.065 302.211 100.483C299.356 102.901 297.777 105.729 298.683 106.8C299.59 107.87 302.64 106.778 305.495 104.36Z" fill="#2F2E41"/>
        <path d="M321.161 101.524C324.016 99.1065 325.596 96.2785 324.689 95.2078C323.782 94.1372 320.733 95.2294 317.877 97.6473C315.022 100.065 313.443 102.893 314.349 103.964C315.256 105.034 318.306 103.942 321.161 101.524Z" fill="#2F2E41"/>
        <path d="M305.039 66.776C310.09 66.776 314.185 62.6815 314.185 57.6307C314.185 52.5799 310.09 48.4855 305.039 48.4855C299.988 48.4855 295.893 52.5799 295.893 57.6307C295.893 62.6815 299.988 66.776 305.039 66.776Z" fill="white"/>
        <path d="M301.28 57.401C302.964 57.401 304.329 56.0362 304.329 54.3526C304.329 52.669 302.964 51.3042 301.28 51.3042C299.596 51.3042 298.231 52.669 298.231 54.3526C298.231 56.0362 299.596 57.401 301.28 57.401Z" fill="#3F3D56"/>
        <path d="M328.022 35.0657C328.425 25.1594 319.886 16.7687 308.951 16.3245C298.016 15.8804 288.825 23.5509 288.423 33.4573C288.02 43.3636 295.622 45.6144 306.557 46.0586C317.492 46.5027 327.62 44.972 328.022 35.0657Z" fill="#5A67D8"/>
        <path d="M295.245 62.2902C295.763 60.0292 290.344 56.8579 283.141 55.207C275.939 53.5562 269.679 54.0508 269.161 56.3118C268.643 58.5728 274.062 61.7441 281.265 63.395C288.467 65.0458 294.727 64.5512 295.245 62.2902Z" fill="#2F2E41"/>
        <path d="M347.774 71.0251C348.292 68.764 342.873 65.5928 335.671 63.9419C328.468 62.291 322.209 62.7856 321.69 65.0467C321.172 67.3077 326.591 70.4789 333.794 72.1298C340.997 73.7807 347.256 73.2861 347.774 71.0251Z" fill="#2F2E41"/>
        <path d="M314.262 74.721C314.405 75.5089 314.391 76.3171 314.221 77.0995C314.051 77.882 313.729 78.6233 313.273 79.2813C312.816 79.9392 312.235 80.5008 311.562 80.9341C310.888 81.3674 310.136 81.6638 309.348 81.8064C308.56 81.949 307.752 81.9351 306.97 81.7653C306.187 81.5956 305.446 81.2734 304.788 80.8172C304.13 80.3609 303.568 79.7796 303.135 79.1063C302.702 78.433 302.405 77.6809 302.263 76.8931C301.663 73.5798 304.225 72.4073 307.538 71.8075C310.852 71.2077 313.662 71.4077 314.262 74.721Z" fill="white"/>
        <path d="M241.384 33.5326L272.209 57.2425" stroke="#3F3D56" stroke-width="2" stroke-miterlimit="10"/>
        <path d="M226.819 46.0649C239.54 46.0649 249.853 35.753 249.853 23.0325C249.853 10.312 239.54 0 226.819 0C214.097 0 203.785 10.312 203.785 23.0325C203.785 35.753 214.097 46.0649 226.819 46.0649Z" fill="#FF6584"/>
        <path d="M306.879 228.559C307.872 221.237 306.813 215.049 304.514 214.737C302.215 214.426 299.547 220.109 298.555 227.431C297.562 234.753 298.621 240.941 300.92 241.253C303.219 241.565 305.887 235.881 306.879 228.559Z" fill="#2F2E41"/>
        <path d="M23.3089 270.872C25.8691 270.872 27.9446 268.797 27.9446 266.237C27.9446 263.677 25.8691 261.602 23.3089 261.602C20.7487 261.602 18.6732 263.677 18.6732 266.237C18.6732 268.797 20.7487 270.872 23.3089 270.872Z" fill="#5A67D8"/>
        <path d="M99.1153 260.809H86.9208V273.003H99.1153V260.809Z" fill="#FF6584"/>
        <path d="M86.9912 273.582C89.5515 273.582 91.6269 271.507 91.6269 268.947C91.6269 266.387 89.5515 264.311 86.9912 264.311C84.431 264.311 82.3555 266.387 82.3555 268.947C82.3555 271.507 84.431 273.582 86.9912 273.582Z" fill="#5A67D8"/>
        <path d="M156.481 91.0158C159.042 91.0158 161.117 88.9405 161.117 86.3804C161.117 83.8203 159.042 81.745 156.481 81.745C153.921 81.745 151.846 83.8203 151.846 86.3804C151.846 88.9405 153.921 91.0158 156.481 91.0158Z" fill="#5A67D8"/>
        <path d="M246.505 232.285C247.728 232.285 248.719 231.294 248.719 230.071C248.719 228.849 247.728 227.858 246.505 227.858C245.282 227.858 244.291 228.849 244.291 230.071C244.291 231.294 245.282 232.285 246.505 232.285Z" fill="#FF6584"/>
        <path d="M257.351 266.812V241.608" stroke="#3F3D56" stroke-width="2" stroke-miterlimit="10"/>
        <path d="M257.351 245.173C259.32 245.173 260.915 243.577 260.915 241.608C260.915 239.64 259.32 238.044 257.351 238.044C255.382 238.044 253.786 239.64 253.786 241.608C253.786 243.577 255.382 245.173 257.351 245.173Z" fill="#3F3D56"/>
        <path d="M257.351 257.142C257.351 257.142 256.842 246.191 246.403 247.464L257.351 257.142Z" fill="#3F3D56"/>
    </g>
    <defs>
        <clipPath id="clip0">
            <rect width="378" height="282" fill="white"/>
        </clipPath>
    </defs>
</svg>
