<svg width="26" height="26" viewBox="0 0 26 26" fill="none" xmlns="http://www.w3.org/2000/svg">
    <path d="M23.01 0H2.99C1.33867 0 0 1.33867 0 2.99V23.01C0 24.6613 1.33867 26 2.99 26H23.01C24.6613 26 26 24.6613 26 23.01V2.99C26 1.33867 24.6613 0 23.01 0Z" fill="#5A67D8"/>
    <path d="M18.174 9.82803C18.174 10.5734 18.2087 11.3014 18.278 12.012C18.3647 12.7054 18.4947 13.6847 18.668 14.95C18.9973 17.082 19.162 18.7807 19.162 20.046C19.162 20.306 19.11 20.462 19.006 20.514C18.902 20.566 18.7807 20.592 18.642 20.592C18.5033 20.592 18.408 20.592 18.356 20.592C18.1133 20.592 17.9227 20.566 17.784 20.514C17.6453 20.4447 17.5327 20.2887 17.446 20.046L16.9 12.974C16.848 12.2634 16.7787 10.8334 16.692 8.68403C15.9467 9.5507 15.21 10.2094 14.482 10.66C13.754 11.0934 13.0087 11.31 12.246 11.31C11.154 11.31 10.062 10.5387 8.97 8.99603C9.022 9.25603 9.048 9.6027 9.048 10.036C9.048 10.4694 9.048 10.7207 9.048 10.79L9.022 19.292C9.022 19.4653 8.92667 19.604 8.736 19.708C8.56267 19.7947 8.38067 19.838 8.19 19.838C7.94733 19.838 7.774 19.7513 7.67 19.578C7.58333 19.3873 7.514 19.136 7.462 18.824V15.184C7.462 14.6293 7.47933 14.0053 7.514 13.312C7.54867 12.6187 7.57467 12.1334 7.592 11.856C7.67867 10.6427 7.722 9.54203 7.722 8.55403C7.722 8.25935 7.67 7.98203 7.566 7.72203C7.462 7.4447 7.306 7.14135 7.098 6.81203C6.89 6.4827 6.734 6.1967 6.63 5.95402C6.54333 5.71135 6.5 5.45135 6.5 5.17402C6.5 4.8447 6.66467 4.68002 6.994 4.68002C7.514 4.68002 7.93867 4.8707 8.268 5.25203C8.59733 5.61603 8.95267 6.1707 9.334 6.91603C9.66333 7.5227 9.94933 7.99935 10.192 8.34602C10.4347 8.6927 10.7467 8.99603 11.128 9.25603C11.5093 9.4987 11.9687 9.62003 12.506 9.62003C13.286 9.6547 13.9273 9.50735 14.43 9.17803C14.9327 8.83135 15.314 8.41535 15.574 7.93003C15.834 7.4447 16.0853 6.85535 16.328 6.16203C16.536 5.59003 16.718 5.19135 16.874 4.96602C17.03 4.72335 17.2207 4.62802 17.446 4.68002C17.966 4.64535 18.226 5.12202 18.226 6.11003C18.226 6.94203 18.2173 7.55735 18.2 7.95603L18.174 9.82803Z" fill="#EDF2F7"/>
</svg>
