<svg width="448" height="239" viewBox="0 0 448 239" fill="none" xmlns="http://www.w3.org/2000/svg">
    <g clip-path="url(#clip0)">
        <path d="M127.184 4.08469L126.023 3.50446L122.88 9.74947L124.04 10.3297L127.184 4.08469Z" fill="white"/>
        <path d="M279.208 205.902H32.1624C31.8531 205.906 31.5441 205.881 31.2393 205.829L148.08 4.09861C148.793 2.84226 149.828 1.7971 151.079 1.0699C152.33 0.342704 153.752 -0.0404663 155.201 -0.0404663C156.649 -0.0404663 158.071 0.342704 159.322 1.0699C160.573 1.7971 161.608 2.84226 162.321 4.09861L240.736 139.475L244.493 145.953L279.208 205.902Z" fill="#5A67D8"/>
        <path opacity="0.2" d="M279.208 205.902H194.86L236.267 145.953L239.246 141.635L240.736 139.475L244.492 145.953L279.208 205.902Z" fill="black"/>
        <path d="M416.761 205.674H203.087L244.493 145.726L247.472 141.407L301.428 63.2823C304.965 58.1621 313.475 57.8432 317.634 62.3166C317.913 62.6217 318.173 62.9443 318.411 63.2823L416.761 205.674Z" fill="#3F3D56"/>
        <path d="M448 205.138H0V206.265H448V205.138Z" fill="#3F3D56"/>
        <path d="M210.744 192.786C219.147 189.541 225.13 184.779 224.108 182.15C223.086 179.52 215.446 180.019 207.043 183.264C198.64 186.509 192.657 191.271 193.679 193.9C194.701 196.529 202.341 196.031 210.744 192.786Z" fill="#2F2E41"/>
        <path d="M176.208 225.001C194.231 225.001 208.842 210.438 208.842 192.473C208.842 174.509 194.231 159.945 176.208 159.945C158.185 159.945 143.575 174.509 143.575 192.473C143.575 210.438 158.185 225.001 176.208 225.001Z" fill="#2F2E41"/>
        <path d="M171.251 218.001H161.337V235.706H171.251V218.001Z" fill="#2F2E41"/>
        <path d="M191.079 218.001H181.165V235.706H191.079V218.001Z" fill="#2F2E41"/>
        <path d="M169.599 239C174.162 239 177.86 237.617 177.86 235.912C177.86 234.206 174.162 232.824 169.599 232.824C165.036 232.824 161.337 234.206 161.337 235.912C161.337 237.617 165.036 239 169.599 239Z" fill="#2F2E41"/>
        <path d="M189.427 238.588C193.989 238.588 197.688 237.206 197.688 235.5C197.688 233.795 193.989 232.412 189.427 232.412C184.864 232.412 181.165 233.795 181.165 235.5C181.165 237.206 184.864 238.588 189.427 238.588Z" fill="#2F2E41"/>
        <path d="M177.034 195.355C183.194 195.355 188.188 190.378 188.188 184.238C188.188 178.098 183.194 173.121 177.034 173.121C170.875 173.121 165.881 178.098 165.881 184.238C165.881 190.378 170.875 195.355 177.034 195.355Z" fill="white"/>
        <path d="M177.034 187.944C179.088 187.944 180.752 186.285 180.752 184.238C180.752 182.192 179.088 180.533 177.034 180.533C174.981 180.533 173.317 182.192 173.317 184.238C173.317 186.285 174.981 187.944 177.034 187.944Z" fill="#3F3D56"/>
        <path d="M144.553 162.223C141.918 150.461 150.341 138.575 163.366 135.676C176.391 132.777 189.087 139.963 191.721 151.725C194.356 163.488 185.724 167.826 172.699 170.725C159.674 173.624 147.188 173.986 144.553 162.223Z" fill="#E6E6E6"/>
        <path d="M147.11 200.1C153.482 193.748 157.026 186.983 155.026 184.989C153.025 182.995 146.238 186.528 139.866 192.879C133.494 199.23 129.95 205.996 131.951 207.99C133.951 209.983 140.738 206.451 147.11 200.1Z" fill="#2F2E41"/>
        <path d="M160.179 204.208C160.179 207.391 168.403 213.678 177.528 213.678C186.654 213.678 195.21 204.715 195.21 201.531C195.21 198.348 186.654 202.149 177.528 202.149C168.403 202.149 160.179 201.024 160.179 204.208Z" fill="white"/>
        <path d="M251.294 193.9C252.316 191.271 246.333 186.509 237.93 183.264C229.527 180.019 221.886 179.52 220.865 182.15C219.843 184.779 225.826 189.541 234.229 192.786C242.632 196.031 250.272 196.529 251.294 193.9Z" fill="#2F2E41"/>
        <path d="M268.765 225.001C286.788 225.001 301.398 210.438 301.398 192.473C301.398 174.509 286.788 159.945 268.765 159.945C250.742 159.945 236.131 174.509 236.131 192.473C236.131 210.438 250.742 225.001 268.765 225.001Z" fill="#2F2E41"/>
        <path d="M273.722 235.706H283.636V218.001H273.722V235.706Z" fill="#2F2E41"/>
        <path d="M253.894 235.706H263.808V218.001H253.894V235.706Z" fill="#2F2E41"/>
        <path d="M275.374 239C279.937 239 283.636 237.617 283.636 235.912C283.636 234.206 279.937 232.824 275.374 232.824C270.811 232.824 267.113 234.206 267.113 235.912C267.113 237.617 270.811 239 275.374 239Z" fill="#2F2E41"/>
        <path d="M255.546 238.588C260.109 238.588 263.808 237.206 263.808 235.5C263.808 233.795 260.109 232.412 255.546 232.412C250.984 232.412 247.285 233.795 247.285 235.5C247.285 237.206 250.984 238.588 255.546 238.588Z" fill="#2F2E41"/>
        <path d="M267.939 195.355C274.098 195.355 279.092 190.378 279.092 184.238C279.092 178.098 274.098 173.121 267.939 173.121C261.779 173.121 256.785 178.098 256.785 184.238C256.785 190.378 261.779 195.355 267.939 195.355Z" fill="white"/>
        <path d="M267.939 187.944C269.992 187.944 271.656 186.285 271.656 184.238C271.656 182.192 269.992 180.533 267.939 180.533C265.885 180.533 264.221 182.192 264.221 184.238C264.221 186.285 265.885 187.944 267.939 187.944Z" fill="#3F3D56"/>
        <path d="M300.42 162.223C303.055 150.461 294.632 138.575 281.607 135.676C268.582 132.777 255.886 139.963 253.251 151.725C250.616 163.488 259.249 167.826 272.274 170.725C285.299 173.624 297.785 173.986 300.42 162.223Z" fill="#5A67D8"/>
        <path d="M313.022 207.989C315.023 205.996 311.479 199.23 305.107 192.879C298.735 186.528 291.947 182.995 289.947 184.989C287.947 186.983 291.491 193.748 297.863 200.1C304.235 206.451 311.022 209.983 313.022 207.989Z" fill="#2F2E41"/>
        <path d="M284.794 204.208C284.794 207.391 276.57 213.678 267.445 213.678C258.319 213.678 249.763 204.715 249.763 201.531C249.763 198.348 258.319 202.149 267.445 202.149C276.57 202.149 284.794 201.024 284.794 204.208Z" fill="white"/>
        <path d="M448 158.335C448 179.356 435.463 186.696 419.998 186.696C404.533 186.696 391.996 179.356 391.996 158.335C391.996 137.315 419.998 110.573 419.998 110.573C419.998 110.573 448 137.315 448 158.335Z" fill="#E6E6E6"/>
        <path d="M418.978 183.48L419.264 165.888L431.199 144.123L419.309 163.128L419.439 155.218L427.664 139.471L419.472 153.124L419.704 138.898L428.513 126.362L419.741 136.66L419.885 110.573L418.975 145.108L419.05 143.683L410.095 130.02L418.906 146.418L418.072 162.307L418.047 161.885L407.723 147.507L418.016 163.375L417.911 165.362L417.893 165.392L417.901 165.555L415.784 205.867H418.613L418.952 185.045L429.22 169.216L418.978 183.48Z" fill="#3F3D56"/>
    </g>
    <defs>
        <clipPath id="clip0">
            <rect width="448" height="239" fill="white"/>
        </clipPath>
    </defs>
</svg>
