<svg width="83" height="109" viewBox="0 0 83 109" fill="none" xmlns="http://www.w3.org/2000/svg">
    <path d="M82.2398 21.6418V101.717C82.2398 105.314 79.3441 108.21 75.7471 108.21H6.4927C2.89575 108.21 0 105.314 0 101.717V6.49235C0 2.89544 2.89575 0 6.4927 0H60.5977" fill="#4FD1C5"/>
    <path d="M60.5979 -1.52588e-05V15.1492C60.5979 18.7461 63.4936 21.6418 67.0905 21.6418H82.24L60.5979 -1.52588e-05Z" fill="#81E6D9"/>
    <path fill-rule="evenodd" clip-rule="evenodd" d="M17.3475 45.4451C17.0607 45.441 16.776 45.494 16.5099 45.601C16.2437 45.7079 16.0015 45.8667 15.7973 46.0681C15.593 46.2694 15.4309 46.5094 15.3202 46.774C15.2095 47.0385 15.1525 47.3225 15.1525 47.6093C15.1525 47.8961 15.2095 48.1801 15.3202 48.4447C15.4309 48.7093 15.593 48.9492 15.7973 49.1506C16.0015 49.3519 16.2437 49.5107 16.5099 49.6176C16.776 49.7246 17.0607 49.7776 17.3475 49.7735C17.6343 49.7776 17.919 49.7246 18.1851 49.6176C18.4513 49.5107 18.6935 49.3519 18.8977 49.1506C19.102 48.9492 19.2641 48.7093 19.3748 48.4447C19.4855 48.1801 19.5425 47.8961 19.5425 47.6093C19.5425 47.3225 19.4855 47.0385 19.3748 46.774C19.2641 46.5094 19.102 46.2694 18.8977 46.0681C18.6935 45.8667 18.4513 45.7079 18.1851 45.601C17.919 45.494 17.6343 45.441 17.3475 45.4451ZM26.0043 45.4451C25.7175 45.441 25.4328 45.494 25.1667 45.601C24.9005 45.7079 24.6583 45.8667 24.4541 46.0681C24.2499 46.2694 24.0877 46.5094 23.977 46.774C23.8663 47.0385 23.8093 47.3225 23.8093 47.6093C23.8093 47.8961 23.8663 48.1801 23.977 48.4447C24.0877 48.7093 24.2499 48.9492 24.4541 49.1506C24.6583 49.3519 24.9005 49.5107 25.1667 49.6176C25.4328 49.7246 25.7175 49.7776 26.0043 49.7735H46.0232H64.9262C65.213 49.7776 65.4977 49.7246 65.7638 49.6176C66.03 49.5107 66.2722 49.3519 66.4764 49.1506C66.6806 48.9492 66.8428 48.7093 66.9535 48.4447C67.0642 48.1801 67.1212 47.8961 67.1212 47.6093C67.1212 47.3225 67.0642 47.0385 66.9535 46.774C66.8428 46.5094 66.6806 46.2694 66.4764 46.0681C66.2722 45.8667 66.03 45.7079 65.7638 45.601C65.4977 45.494 65.213 45.441 64.9262 45.4451H46.0232H26.0043Z" fill="white"/>
    <path fill-rule="evenodd" clip-rule="evenodd" d="M17.3475 54.1019C17.0607 54.0979 16.776 54.1509 16.5099 54.2578C16.2437 54.3647 16.0015 54.5235 15.7973 54.7249C15.593 54.9262 15.4309 55.1662 15.3202 55.4308C15.2095 55.6954 15.1525 55.9793 15.1525 56.2661C15.1525 56.5529 15.2095 56.8369 15.3202 57.1015C15.4309 57.3661 15.593 57.606 15.7973 57.8074C16.0015 58.0088 16.2437 58.1675 16.5099 58.2745C16.776 58.3814 17.0607 58.4344 17.3475 58.4303C17.6343 58.4344 17.919 58.3814 18.1851 58.2745C18.4513 58.1675 18.6935 58.0088 18.8977 57.8074C19.102 57.606 19.2641 57.3661 19.3748 57.1015C19.4855 56.8369 19.5425 56.5529 19.5425 56.2661C19.5425 55.9793 19.4855 55.6954 19.3748 55.4308C19.2641 55.1662 19.102 54.9262 18.8977 54.7249C18.6935 54.5235 18.4513 54.3647 18.1851 54.2578C17.919 54.1509 17.6343 54.0979 17.3475 54.1019ZM26.0043 54.1019C25.7175 54.0979 25.4328 54.1509 25.1667 54.2578C24.9005 54.3647 24.6583 54.5235 24.4541 54.7249C24.2499 54.9262 24.0877 55.1662 23.977 55.4308C23.8663 55.6954 23.8093 55.9793 23.8093 56.2661C23.8093 56.5529 23.8663 56.8369 23.977 57.1015C24.0877 57.3661 24.2499 57.606 24.4541 57.8074C24.6583 58.0088 24.9005 58.1675 25.1667 58.2745C25.4328 58.3814 25.7175 58.4344 26.0043 58.4303H46.0232H64.9262C65.213 58.4344 65.4977 58.3814 65.7638 58.2745C66.03 58.1675 66.2722 58.0088 66.4764 57.8074C66.6806 57.606 66.8428 57.3661 66.9535 57.1015C67.0642 56.8369 67.1212 56.5529 67.1212 56.2661C67.1212 55.9793 67.0642 55.6954 66.9535 55.4308C66.8428 55.1662 66.6806 54.9262 66.4764 54.7249C66.2722 54.5235 66.03 54.3647 65.7638 54.2578C65.4977 54.1509 65.213 54.0979 64.9262 54.1019H46.0232H26.0043Z" fill="white"/>
    <path fill-rule="evenodd" clip-rule="evenodd" d="M17.3475 62.7587C17.0607 62.7547 16.776 62.8077 16.5099 62.9146C16.2437 63.0216 16.0015 63.1803 15.7973 63.3817C15.593 63.5831 15.4309 63.823 15.3202 64.0876C15.2095 64.3522 15.1525 64.6361 15.1525 64.9229C15.1525 65.2098 15.2095 65.4937 15.3202 65.7583C15.4309 66.0229 15.593 66.2628 15.7973 66.4642C16.0015 66.6656 16.2437 66.8243 16.5099 66.9313C16.776 67.0382 17.0607 67.0912 17.3475 67.0872C17.6343 67.0912 17.919 67.0382 18.1851 66.9313C18.4513 66.8243 18.6935 66.6656 18.8977 66.4642C19.102 66.2628 19.2641 66.0229 19.3748 65.7583C19.4855 65.4937 19.5425 65.2098 19.5425 64.9229C19.5425 64.6361 19.4855 64.3522 19.3748 64.0876C19.2641 63.823 19.102 63.5831 18.8977 63.3817C18.6935 63.1803 18.4513 63.0216 18.1851 62.9146C17.919 62.8077 17.6343 62.7547 17.3475 62.7587ZM26.0043 62.7587C25.7175 62.7547 25.4328 62.8077 25.1667 62.9146C24.9005 63.0216 24.6583 63.1803 24.4541 63.3817C24.2499 63.5831 24.0877 63.823 23.977 64.0876C23.8663 64.3522 23.8093 64.6361 23.8093 64.9229C23.8093 65.2098 23.8663 65.4937 23.977 65.7583C24.0877 66.0229 24.2499 66.2628 24.4541 66.4642C24.6583 66.6656 24.9005 66.8243 25.1667 66.9313C25.4328 67.0382 25.7175 67.0912 26.0043 67.0872H46.0232H64.9262C65.213 67.0912 65.4977 67.0382 65.7638 66.9313C66.03 66.8243 66.2722 66.6656 66.4764 66.4642C66.6806 66.2628 66.8428 66.0229 66.9535 65.7583C67.0642 65.4937 67.1212 65.2098 67.1212 64.9229C67.1212 64.6361 67.0642 64.3522 66.9535 64.0876C66.8428 63.823 66.6806 63.5831 66.4764 63.3817C66.2722 63.1803 66.03 63.0216 65.7638 62.9146C65.4977 62.8077 65.213 62.7547 64.9262 62.7587H46.0232H26.0043Z" fill="white"/>
</svg>
