<svg width="95" height="95" viewBox="0 0 95 95" fill="none" xmlns="http://www.w3.org/2000/svg">
    <rect width="95" height="95" rx="10" fill="#2D3748"/>
    <path d="M31.8569 50.0389L34.6264 52.8084L42.935 44.5L34.6264 36.1914L31.8569 38.961L37.3959 44.5L31.8569 50.0389Z" fill="#EDF2F7"/>
    <path d="M51.3751 48.4167H43.5417V52.3333H51.3751V48.4167Z" fill="#EDF2F7"/>
    <path fill-rule="evenodd" clip-rule="evenodd" d="M25.9167 24.9167C23.7536 24.9167 22 26.6702 22 28.8333V60.1667C22 62.3299 23.7536 64.0833 25.9167 64.0833H65.0833C67.2465 64.0833 69 62.3299 69 60.1667V28.8333C69 26.6702 67.2465 24.9167 65.0833 24.9167H25.9167ZM65.0833 28.8333H25.9167V60.1667H65.0833V28.8333Z" fill="#EDF2F7"/>
</svg>
