<svg width="95" height="95" viewBox="0 0 95 95" fill="none" xmlns="http://www.w3.org/2000/svg">
    <path d="M89.3 0H5.7C2.55198 0 0 2.55198 0 5.7V89.3C0 92.448 2.55198 95 5.7 95H89.3C92.448 95 95 92.448 95 89.3V5.7C95 2.55198 92.448 0 89.3 0Z" fill="#1A202C"/>
    <path d="M41.291 58.1714L42.2948 55.662C42.5463 54.9448 43.3137 54.5485 44.0441 54.7586L57.3226 58.745L71.5333 35.5435L35.4116 25.2189L41.291 58.1714ZM72.3075 32.6899V18.9095L59.5884 28.4453L72.3075 32.6899ZM84.9838 27.0974L75.1754 19.0673V26.2371L84.9838 27.0974ZM71.9203 40.4189L61.1513 58.0566L70.8736 55.1027L71.9203 40.4189ZM55.3151 61.2114L44.4742 57.9563C41.2765 65.9435 43.5136 60.4945 33.5905 83.954L55.3151 61.2114ZM32.4434 24.9178L9.74378 29.693L36.989 50.0983L32.4434 24.9178ZM28.6003 47.4311L16.5981 38.4258L9.72943 43.7314L28.6003 47.4311Z" fill="#4299E1"/>
    <path d="M41.291 58.1714L42.2948 55.662C42.5463 54.9448 43.3137 54.5485 44.0441 54.7586L57.3226 58.745L71.5333 35.5435L35.4116 25.2189L41.291 58.1714ZM72.3075 32.6899V18.9095L59.5884 28.4453L72.3075 32.6899ZM84.9838 27.0974L75.1754 19.0673V26.2371L84.9838 27.0974ZM71.9203 40.4189L61.1513 58.0566L70.8736 55.1027L71.9203 40.4189ZM55.3151 61.2114L44.4742 57.9563C41.2765 65.9435 43.5136 60.4945 33.5905 83.954L55.3151 61.2114ZM32.4434 24.9178L9.74378 29.693L36.989 50.0983L32.4434 24.9178ZM28.6003 47.4311L16.5981 38.4258L9.72943 43.7314L28.6003 47.4311Z" fill="url(#paint0_linear)"/>
    <defs>
        <linearGradient id="paint0_linear" x1="47.3565" y1="18.9095" x2="47.3565" y2="83.954" gradientUnits="userSpaceOnUse">
            <stop stop-color="#3182CE"/>
            <stop offset="1" stop-color="#81E6D9" stop-opacity="0"/>
        </linearGradient>
    </defs>
</svg>
