<svg width="90" height="90" viewBox="0 0 90 90" fill="none" xmlns="http://www.w3.org/2000/svg">
    <rect width="90" height="90" rx="10" fill="#805AD5"/>
    <path d="M69.9033 52.896L58.198 31.3275C58.0584 31.0704 57.7893 30.9102 57.4967 30.9102C57.2042 30.9102 56.935 31.0704 56.7955 31.3276L54.0627 36.3632C53.8525 36.7505 53.9961 37.2348 54.3835 37.445C54.7709 37.6553 55.255 37.5115 55.4653 37.1242L57.4968 33.3808L63.8335 45.0569L60.6334 47.925C60.3053 48.2192 60.2777 48.7235 60.5718 49.0517C60.7294 49.2276 60.9474 49.317 61.1663 49.317C61.3559 49.317 61.5462 49.2498 61.6985 49.1133L64.6159 46.4984L68.5009 53.6571C68.6454 53.9235 68.9198 54.0746 69.2029 54.0746C69.3315 54.0746 69.4619 54.0434 69.5827 53.9778C69.9699 53.7677 70.1135 53.2832 69.9033 52.896Z"
          fill="#EDF2F7"/>
    <path d="M28.3017 49.1133C28.454 49.2499 28.6443 49.317 28.8339 49.317C29.0527 49.317 29.2707 49.2275 29.4283 49.0517C29.7224 48.7236 29.6948 48.2192 29.3667 47.925L26.1666 45.0569L32.5032 33.3808L34.5348 37.1243C34.7449 37.5116 35.2291 37.6551 35.6166 37.445C36.0039 37.2348 36.1475 36.7504 35.9373 36.3632L33.2044 31.3276C33.0648 31.0705 32.7958 30.9104 32.5031 30.9104C32.2105 30.9104 31.9414 31.0705 31.8019 31.3276L20.0968 52.8961C19.8866 53.2833 20.0302 53.7677 20.4175 53.9779C20.5384 54.0435 20.6687 54.0747 20.7974 54.0747C21.0806 54.0747 21.3548 53.9236 21.4994 53.6572L25.3844 46.4986L28.3017 49.1133Z"
          fill="#EDF2F7"/>
    <path d="M45.7013 24.9328C45.5617 24.6757 45.2926 24.5156 45 24.5156C44.7075 24.5156 44.4383 24.6757 44.2988 24.9328L22.9311 64.3058C22.7209 64.6931 22.8645 65.1775 23.2518 65.3876C23.3727 65.4532 23.503 65.4844 23.6317 65.4844C23.9148 65.4844 24.1891 65.3333 24.3337 65.067L35.3399 44.7864L39.5275 48.5401C39.8306 48.8118 40.2895 48.8117 40.5926 48.5401L44.9996 44.5897L49.4072 48.5402C49.5588 48.6761 49.7493 48.744 49.9398 48.744C50.1303 48.744 50.3207 48.6761 50.4723 48.5402L54.6604 44.7865L65.6667 65.0672C65.8769 65.4544 66.3611 65.598 66.7485 65.3878C67.1358 65.1776 67.2794 64.6932 67.0692 64.306L45.7013 24.9328ZM49.9397 46.8745L45.5319 42.924C45.229 42.6523 44.77 42.6524 44.4668 42.924L40.06 46.8744L36.1222 43.3447L45 26.9861L53.8778 43.3447L49.9397 46.8745Z"
          fill="#EDF2F7"/>
    <path d="M53.6031 54.7082C53.1339 54.7082 52.7521 55.09 52.7521 55.5592C52.7521 56.0285 53.1339 56.4103 53.6031 56.4103C54.0724 56.4103 54.4542 56.0285 54.4542 55.5592C54.4542 55.09 54.0725 54.7082 53.6031 54.7082Z"
          fill="#EDF2F7"/>
    <path d="M35.0404 59.3668C34.5712 59.3668 34.1894 59.7486 34.1894 60.2178C34.1894 60.6871 34.5712 61.0689 35.0404 61.0689C35.5097 61.0689 35.8915 60.6871 35.8915 60.2178C35.8915 59.7486 35.5097 59.3668 35.0404 59.3668Z"
          fill="#EDF2F7"/>
    <path d="M56.4122 57.2802C55.9429 57.2802 55.5611 57.662 55.5611 58.1313C55.5611 58.6005 55.9429 58.9823 56.4122 58.9823C56.8814 58.9823 57.2632 58.6005 57.2632 58.1313C57.2632 57.662 56.8814 57.2802 56.4122 57.2802Z"
          fill="#EDF2F7"/>
</svg>
