<svg width="90" height="90" viewBox="0 0 90 90" fill="none" xmlns="http://www.w3.org/2000/svg">
    <rect width="90" height="90" rx="10" fill="#2D3748"/>
    <g clip-path="url(#clip0)">
        <path d="M61.6896 28.3359C61.342 27.9751 60.7942 27.8959 60.3608 28.1423L48.2262 34.9686L49.313 29.5392C49.4075 29.0618 49.181 28.5823 48.7542 28.3535C48.3274 28.1269 47.7994 28.1995 47.4562 28.5449L31.9711 44.03C31.9425 44.052 31.9161 44.0762 31.8919 44.1026C30.0286 45.9945 29.0013 48.4804 29.0013 51.1004C29.0013 56.5584 33.4429 61 38.9008 61C41.5231 61 44.009 59.9726 45.8987 58.1115C45.9273 58.0829 45.9515 58.0543 45.9779 58.0235L59.1245 44.8791C59.4545 44.5491 59.5403 44.0454 59.3379 43.6252C59.1377 43.205 58.6889 42.9674 58.2247 43.0092L53.4422 43.5394L61.8392 29.6712C62.0988 29.2422 62.0394 28.6945 61.6896 28.3359ZM38.9008 57.7001C35.2556 57.7001 32.3011 54.7457 32.3011 51.1004C32.3011 47.4552 35.2556 44.5007 38.9008 44.5007C42.5461 44.5007 45.5005 47.4552 45.5005 51.1004C45.5005 54.7457 42.5461 57.7001 38.9008 57.7001Z" fill="#EDF2F7"/>
    </g>
    <defs>
        <clipPath id="clip0">
            <rect x="29" y="28" width="33" height="33" fill="white"/>
        </clipPath>
    </defs>
</svg>
